# xmcd CD database file
#
# Track frame offsets:
#	150
#	28598
#	44860
#	62955
#	83470
#	122040
#	146163
#	180775
#	208513
#	226143
#	247598
#	268285
#
# Disc length: 3815 seconds
#
# Revision: 4
# Processed by: cddbd v1.5.2PL0 Copyright (c) Steve Scherf et al.
# Submitted via: CDex 1.70beta2
#
DISCID=a10ee50c
DTITLE=Mark Murphy - Song For The Geese
DYEAR=1997
DGENRE=Jazz
TTITLE0=You Go To My Head
TTITLE1=Sugar
TTITLE2=Baltimore Oriole
TTITLE3=Do It Again
TTITLE4=(Baby) It's Just Talk
TTITLE5=Your'e Blase'
TTITLE6=Song For The Geese
TTITLE7=Everybody Loves Me
TTITLE8=Lament
TTITLE9=I Remember
TTITLE10=We Two (Nos Dois)
TTITLE11=I Wish You Love
EXTD=YEAR: 1997
EXTT0=
EXTT1=
EXTT2=
EXTT3=
EXTT4=
EXTT5=
EXTT6=
EXTT7=
EXTT8=
EXTT9=
EXTT10=
EXTT11=
PLAYORDER=
